<?xml version="1.0" encoding="UTF-8" standalone="no"?>
<!DOCTYPE svg PUBLIC "-//W3C//DTD SVG 1.1//EN"
 "http://www.w3.org/Graphics/SVG/1.1/DTD/svg11.dtd">
<!-- Generated by graphviz version 2.43.0 (0)
 -->
<!-- Title: %3 Pages: 1 -->
<svg width="1523pt" height="260pt"
 viewBox="0.00 0.00 1523.21 260.00" xmlns="http://www.w3.org/2000/svg" xmlns:xlink="http://www.w3.org/1999/xlink">
<g id="graph0" class="graph" transform="scale(1 1) rotate(0) translate(4 256)">
<title>%3</title>
<polygon fill="white" stroke="transparent" points="-4,4 -4,-256 1519.21,-256 1519.21,4 -4,4"/>
<!-- /workspaces/BD&#45;Terragrunt&#45;Demo/Live&#45;env/Network/nsg&#45;internal -->
<g id="node1" class="node">
<title>/workspaces/BD&#45;Terragrunt&#45;Demo/Live&#45;env/Network/nsg&#45;internal</title>
<ellipse fill="none" stroke="black" cx="985.57" cy="-18" rx="311.94" ry="18"/>
<text text-anchor="middle" x="985.57" y="-14.3" font-family="Times,serif" font-size="14.00">/workspaces/BD&#45;Terragrunt&#45;Demo/Live&#45;env/Network/nsg&#45;internal</text>
</g>
<!-- /workspaces/BD&#45;Terragrunt&#45;Demo/Live&#45;env/Network/subnet&#45;internal -->
<g id="node2" class="node">
<title>/workspaces/BD&#45;Terragrunt&#45;Demo/Live&#45;env/Network/subnet&#45;internal</title>
<ellipse fill="none" stroke="black" cx="955.57" cy="-90" rx="326.84" ry="18"/>
<text text-anchor="middle" x="955.57" y="-86.3" font-family="Times,serif" font-size="14.00">/workspaces/BD&#45;Terragrunt&#45;Demo/Live&#45;env/Network/subnet&#45;internal</text>
</g>
<!-- /workspaces/BD&#45;Terragrunt&#45;Demo/Live&#45;env/Network/subnet&#45;internal&#45;&gt;/workspaces/BD&#45;Terragrunt&#45;Demo/Live&#45;env/Network/nsg&#45;internal -->
<g id="edge2" class="edge">
<title>/workspaces/BD&#45;Terragrunt&#45;Demo/Live&#45;env/Network/subnet&#45;internal&#45;&gt;/workspaces/BD&#45;Terragrunt&#45;Demo/Live&#45;env/Network/nsg&#45;internal</title>
<path fill="none" stroke="black" d="M962.99,-71.7C966.37,-63.81 970.44,-54.3 974.19,-45.55"/>
<polygon fill="black" stroke="black" points="977.52,-46.67 978.24,-36.1 971.08,-43.92 977.52,-46.67"/>
</g>
<!-- /workspaces/BD&#45;Terragrunt&#45;Demo/Live&#45;env/Network/virtual&#45;network -->
<g id="node3" class="node">
<title>/workspaces/BD&#45;Terragrunt&#45;Demo/Live&#45;env/Network/virtual&#45;network</title>
<ellipse fill="none" stroke="black" cx="327.57" cy="-18" rx="327.64" ry="18"/>
<text text-anchor="middle" x="327.57" y="-14.3" font-family="Times,serif" font-size="14.00">/workspaces/BD&#45;Terragrunt&#45;Demo/Live&#45;env/Network/virtual&#45;network</text>
</g>
<!-- /workspaces/BD&#45;Terragrunt&#45;Demo/Live&#45;env/Network/subnet&#45;internal&#45;&gt;/workspaces/BD&#45;Terragrunt&#45;Demo/Live&#45;env/Network/virtual&#45;network -->
<g id="edge1" class="edge">
<title>/workspaces/BD&#45;Terragrunt&#45;Demo/Live&#45;env/Network/subnet&#45;internal&#45;&gt;/workspaces/BD&#45;Terragrunt&#45;Demo/Live&#45;env/Network/virtual&#45;network</title>
<path fill="none" stroke="black" d="M817.75,-73.64C716.51,-62.35 579.13,-47.04 475.57,-35.5"/>
<polygon fill="black" stroke="black" points="475.66,-31.99 465.34,-34.36 474.89,-38.94 475.66,-31.99"/>
</g>
<!-- azure&#45;naming -->
<g id="node4" class="node">
<title>azure&#45;naming</title>
<ellipse fill="none" stroke="black" cx="1419.57" cy="-18" rx="74.19" ry="18"/>
<text text-anchor="middle" x="1419.57" y="-14.3" font-family="Times,serif" font-size="14.00">azure&#45;naming</text>
</g>
<!-- key&#45;vault -->
<g id="node5" class="node">
<title>key&#45;vault</title>
<ellipse fill="none" stroke="black" cx="1364.57" cy="-234" rx="53.09" ry="18"/>
<text text-anchor="middle" x="1364.57" y="-230.3" font-family="Times,serif" font-size="14.00">key&#45;vault</text>
</g>
<!-- key&#45;vault&#45;&gt;/workspaces/BD&#45;Terragrunt&#45;Demo/Live&#45;env/Network/subnet&#45;internal -->
<g id="edge6" class="edge">
<title>key&#45;vault&#45;&gt;/workspaces/BD&#45;Terragrunt&#45;Demo/Live&#45;env/Network/subnet&#45;internal</title>
<path fill="none" stroke="black" d="M1328.63,-220.52C1257.78,-195.92 1099.5,-140.97 1013.64,-111.16"/>
<polygon fill="black" stroke="black" points="1014.64,-107.8 1004.04,-107.83 1012.34,-114.42 1014.64,-107.8"/>
</g>
<!-- key&#45;vault&#45;&gt;azure&#45;naming -->
<g id="edge3" class="edge">
<title>key&#45;vault&#45;&gt;azure&#45;naming</title>
<path fill="none" stroke="black" d="M1392.86,-218.59C1427.82,-198.98 1485.62,-160.27 1509.57,-108 1516.24,-93.45 1517.51,-85.89 1509.57,-72 1501,-57.01 1486.35,-45.84 1471.33,-37.72"/>
<polygon fill="black" stroke="black" points="1472.49,-34.38 1461.98,-33.05 1469.37,-40.65 1472.49,-34.38"/>
</g>
<!-- resource&#45;group -->
<g id="node6" class="node">
<title>resource&#45;group</title>
<ellipse fill="none" stroke="black" cx="1419.57" cy="-90" rx="81.49" ry="18"/>
<text text-anchor="middle" x="1419.57" y="-86.3" font-family="Times,serif" font-size="14.00">resource&#45;group</text>
</g>
<!-- key&#45;vault&#45;&gt;resource&#45;group -->
<g id="edge4" class="edge">
<title>key&#45;vault&#45;&gt;resource&#45;group</title>
<path fill="none" stroke="black" d="M1379.28,-216.49C1387.36,-206.57 1396.86,-193.32 1402.57,-180 1411.04,-160.27 1415.31,-136.29 1417.45,-118.19"/>
<polygon fill="black" stroke="black" points="1420.95,-118.34 1418.5,-108.04 1413.99,-117.62 1420.95,-118.34"/>
</g>
<!-- storage&#45;account -->
<g id="node7" class="node">
<title>storage&#45;account</title>
<ellipse fill="none" stroke="black" cx="1308.57" cy="-162" rx="85.29" ry="18"/>
<text text-anchor="middle" x="1308.57" y="-158.3" font-family="Times,serif" font-size="14.00">storage&#45;account</text>
</g>
<!-- key&#45;vault&#45;&gt;storage&#45;account -->
<g id="edge5" class="edge">
<title>key&#45;vault&#45;&gt;storage&#45;account</title>
<path fill="none" stroke="black" d="M1351.3,-216.41C1344.5,-207.91 1336.07,-197.37 1328.5,-187.91"/>
<polygon fill="black" stroke="black" points="1331.12,-185.58 1322.14,-179.96 1325.65,-189.95 1331.12,-185.58"/>
</g>
<!-- resource&#45;group&#45;&gt;azure&#45;naming -->
<g id="edge7" class="edge">
<title>resource&#45;group&#45;&gt;azure&#45;naming</title>
<path fill="none" stroke="black" d="M1419.57,-71.7C1419.57,-63.98 1419.57,-54.71 1419.57,-46.11"/>
<polygon fill="black" stroke="black" points="1423.07,-46.1 1419.57,-36.1 1416.07,-46.1 1423.07,-46.1"/>
</g>
<!-- storage&#45;account&#45;&gt;/workspaces/BD&#45;Terragrunt&#45;Demo/Live&#45;env/Network/subnet&#45;internal -->
<g id="edge10" class="edge">
<title>storage&#45;account&#45;&gt;/workspaces/BD&#45;Terragrunt&#45;Demo/Live&#45;env/Network/subnet&#45;internal</title>
<path fill="none" stroke="black" d="M1248.69,-149.13C1193.89,-138.26 1111.94,-122.01 1048.61,-109.45"/>
<polygon fill="black" stroke="black" points="1049.1,-105.98 1038.61,-107.47 1047.74,-112.85 1049.1,-105.98"/>
</g>
<!-- storage&#45;account&#45;&gt;azure&#45;naming -->
<g id="edge8" class="edge">
<title>storage&#45;account&#45;&gt;azure&#45;naming</title>
<path fill="none" stroke="black" d="M1308.72,-143.95C1309.7,-124.71 1313.84,-93.34 1329.57,-72 1340.27,-57.48 1356.25,-46.24 1371.78,-37.93"/>
<polygon fill="black" stroke="black" points="1373.48,-40.99 1380.83,-33.37 1370.33,-34.74 1373.48,-40.99"/>
</g>
<!-- storage&#45;account&#45;&gt;resource&#45;group -->
<g id="edge9" class="edge">
<title>storage&#45;account&#45;&gt;resource&#45;group</title>
<path fill="none" stroke="black" d="M1334.32,-144.76C1349.45,-135.22 1368.77,-123.04 1385.19,-112.68"/>
<polygon fill="black" stroke="black" points="1387.37,-115.44 1393.97,-107.15 1383.64,-109.52 1387.37,-115.44"/>
</g>
</g>
</svg>
