<?xml version="1.0" encoding="UTF-8" standalone="no"?>
<!DOCTYPE svg PUBLIC "-//W3C//DTD SVG 1.1//EN"
 "http://www.w3.org/Graphics/SVG/1.1/DTD/svg11.dtd">
<!-- Generated by graphviz version 2.43.0 (0)
 -->
<!-- Title: %3 Pages: 1 -->
<svg width="480pt" height="116pt"
 viewBox="0.00 0.00 479.84 116.00" xmlns="http://www.w3.org/2000/svg" xmlns:xlink="http://www.w3.org/1999/xlink">
<g id="graph0" class="graph" transform="scale(1 1) rotate(0) translate(4 112)">
<title>%3</title>
<polygon fill="white" stroke="transparent" points="-4,4 -4,-112 475.84,-112 475.84,4 -4,4"/>
<!-- nsg&#45;external -->
<g id="node1" class="node">
<title>nsg&#45;external</title>
<ellipse fill="none" stroke="black" cx="68.89" cy="-18" rx="68.79" ry="18"/>
<text text-anchor="middle" x="68.89" y="-14.3" font-family="Times,serif" font-size="14.00">nsg&#45;external</text>
</g>
<!-- nsg&#45;internal -->
<g id="node2" class="node">
<title>nsg&#45;internal</title>
<ellipse fill="none" stroke="black" cx="404.89" cy="-18" rx="66.89" ry="18"/>
<text text-anchor="middle" x="404.89" y="-14.3" font-family="Times,serif" font-size="14.00">nsg&#45;internal</text>
</g>
<!-- subnet&#45;external -->
<g id="node3" class="node">
<title>subnet&#45;external</title>
<ellipse fill="none" stroke="black" cx="144.89" cy="-90" rx="83.69" ry="18"/>
<text text-anchor="middle" x="144.89" y="-86.3" font-family="Times,serif" font-size="14.00">subnet&#45;external</text>
</g>
<!-- subnet&#45;external&#45;&gt;nsg&#45;external -->
<g id="edge2" class="edge">
<title>subnet&#45;external&#45;&gt;nsg&#45;external</title>
<path fill="none" stroke="black" d="M126.88,-72.41C117.13,-63.43 104.93,-52.19 94.24,-42.34"/>
<polygon fill="black" stroke="black" points="96.5,-39.67 86.78,-35.47 91.76,-44.82 96.5,-39.67"/>
</g>
<!-- virtual&#45;network -->
<g id="node4" class="node">
<title>virtual&#45;network</title>
<ellipse fill="none" stroke="black" cx="237.89" cy="-18" rx="82.59" ry="18"/>
<text text-anchor="middle" x="237.89" y="-14.3" font-family="Times,serif" font-size="14.00">virtual&#45;network</text>
</g>
<!-- subnet&#45;external&#45;&gt;virtual&#45;network -->
<g id="edge1" class="edge">
<title>subnet&#45;external&#45;&gt;virtual&#45;network</title>
<path fill="none" stroke="black" d="M166.93,-72.41C179.21,-63.17 194.67,-51.54 208.02,-41.49"/>
<polygon fill="black" stroke="black" points="210.13,-44.28 216.01,-35.47 205.92,-38.69 210.13,-44.28"/>
</g>
<!-- subnet&#45;internal -->
<g id="node5" class="node">
<title>subnet&#45;internal</title>
<ellipse fill="none" stroke="black" cx="366.89" cy="-90" rx="81.79" ry="18"/>
<text text-anchor="middle" x="366.89" y="-86.3" font-family="Times,serif" font-size="14.00">subnet&#45;internal</text>
</g>
<!-- subnet&#45;internal&#45;&gt;nsg&#45;internal -->
<g id="edge4" class="edge">
<title>subnet&#45;internal&#45;&gt;nsg&#45;internal</title>
<path fill="none" stroke="black" d="M376.09,-72.05C380.46,-64.01 385.78,-54.2 390.66,-45.23"/>
<polygon fill="black" stroke="black" points="393.82,-46.73 395.52,-36.28 387.67,-43.39 393.82,-46.73"/>
</g>
<!-- subnet&#45;internal&#45;&gt;virtual&#45;network -->
<g id="edge3" class="edge">
<title>subnet&#45;internal&#45;&gt;virtual&#45;network</title>
<path fill="none" stroke="black" d="M337.62,-73.12C319.52,-63.3 296.09,-50.58 276.49,-39.94"/>
<polygon fill="black" stroke="black" points="277.96,-36.76 267.5,-35.06 274.62,-42.91 277.96,-36.76"/>
</g>
</g>
</svg>
